<?xml version="1.0" encoding="UTF-8"?> <svg xmlns="http://www.w3.org/2000/svg" width="120" height="120" viewBox="0 0 120 120" fill="none"> <path d="M60.7162 2.16794L70.2182 11.9195C71.0159 12.7382 72.2095 13.0324 73.2964 12.6782L86.2417 8.45942C86.7765 8.28514 87.3497 8.586 87.5101 9.1251L91.3918 22.1755C91.7177 23.2711 92.6379 24.0863 93.7649 24.2778L107.188 26.5582C107.742 26.6524 108.11 27.1852 108.002 27.7371L105.374 41.0966C105.153 42.2182 105.589 43.3676 106.498 44.0609L117.324 52.3181C117.771 52.6592 117.849 53.3019 117.497 53.7401L108.962 64.3482C108.245 65.2388 108.097 66.4592 108.579 67.4954L114.328 79.8379C114.565 80.3477 114.336 80.953 113.82 81.1772L101.333 86.6037C100.284 87.0593 99.5859 88.0711 99.5317 89.2129L98.8858 102.813C98.8592 103.375 98.3746 103.804 97.8137 103.763L84.2348 102.765C83.0948 102.681 82.0063 103.252 81.4277 104.238L74.5355 115.98C74.2508 116.465 73.6222 116.62 73.1447 116.323L61.5852 109.129C60.6147 108.525 59.3853 108.525 58.4148 109.129L46.8553 116.323C46.3778 116.62 45.7492 116.465 45.4645 115.98L38.5724 104.238C37.9937 103.252 36.9052 102.681 35.7652 102.765L22.1863 103.763C21.6254 103.804 21.1408 103.375 21.1142 102.813L20.4683 89.2129C20.4141 88.0711 19.7158 87.0593 18.6674 86.6037L6.18006 81.1772C5.66422 80.953 5.43465 80.3477 5.67211 79.8379L11.4206 67.4954C11.9032 66.4592 11.755 65.2388 11.0384 64.3482L2.50327 53.7401C2.1507 53.3019 2.22873 52.6592 2.67593 52.3181L13.5018 44.0609C14.4106 43.3676 14.8466 42.2182 14.626 41.0966L11.9983 27.7371C11.8897 27.1852 12.2575 26.6524 12.812 26.5582L26.2351 24.2778C27.3621 24.0863 28.2823 23.2711 28.6082 22.1755L32.4899 9.1251C32.6503 8.586 33.2235 8.28514 33.7583 8.45942L46.7036 12.6782C47.7904 13.0324 48.9841 12.7382 49.7818 11.9195L59.2838 2.16794C59.6763 1.76512 60.3237 1.76512 60.7162 2.16794Z" fill="#33FF00" stroke="#201E1E" stroke-width="2"></path> <path d="M99.9156 62.1177L100.045 60.7821L91.5531 59.961L91.4516 61.0108L94.84 61.3384L98.272 61.582L93.6827 62.5922L93.623 63.2105L98.0437 65.2215L94.5062 64.7911L91.1177 64.4634L91.0162 65.5132L99.5078 66.3343L99.6375 64.9929L95.5361 63.0893L99.9156 62.1177Z" fill="#201E1E"></path> <path d="M89.6602 70.4115L89.3705 71.3523L95.4296 73.218L95.7504 72.1765L91.4048 70.8383C91.2914 70.7421 91.1919 70.6338 91.1064 70.5135C91.0234 70.398 90.96 70.2722 90.916 70.1361C90.8604 69.9718 90.8327 69.7895 90.833 69.5894C90.8371 69.3903 90.8748 69.1751 90.946 68.9436C91.007 68.7458 91.0871 68.5784 91.1865 68.4414C91.2848 68.3081 91.4153 68.2094 91.5782 68.1451C91.7373 68.0796 91.9332 68.0541 92.1658 68.0685C92.3984 68.0829 92.679 68.1407 93.0075 68.2419L96.6194 69.3541L96.9384 68.3181L93.3377 67.2094C92.886 67.0703 92.4828 66.9992 92.1281 66.9963C91.776 66.9982 91.4673 67.0585 91.2019 67.177C90.9365 67.2956 90.7137 67.4681 90.5336 67.6947C90.3572 67.9224 90.2202 68.1949 90.1224 68.5122C90.0006 68.908 89.9752 69.2823 90.0464 69.6353C90.1213 69.9894 90.277 70.3133 90.5136 70.6068L89.6602 70.4115Z" fill="#201E1E"></path> <path d="M88.4542 76.9318C88.3651 76.883 88.2905 76.82 88.2304 76.7426C88.1704 76.6652 88.1256 76.5762 88.0961 76.4754C88.0479 76.3111 88.0445 76.1178 88.0859 75.8956C88.1307 75.6752 88.2225 75.4382 88.3612 75.1846C88.4492 75.0235 88.5554 74.8701 88.6796 74.7243C88.8039 74.5785 88.9437 74.4613 89.099 74.3726C89.2562 74.2805 89.427 74.2247 89.6112 74.2053C89.7936 74.1893 89.9862 74.2278 90.1891 74.3209L90.7092 73.3699C90.4727 73.2406 90.2157 73.169 89.9383 73.1553C89.659 73.1451 89.3808 73.1978 89.1039 73.3135C88.8253 73.4238 88.5541 73.5983 88.2901 73.8368C88.0295 74.0772 87.7962 74.3859 87.59 74.7629C87.4101 75.0919 87.2836 75.4168 87.2107 75.7375C87.1377 76.0582 87.1188 76.3573 87.1541 76.6348C87.1893 76.9123 87.2781 77.1612 87.4203 77.3815C87.5607 77.6051 87.7542 77.7844 88.001 77.9194C88.2306 78.0449 88.46 78.1058 88.6892 78.102C88.9164 78.1016 89.1475 78.0454 89.3824 77.9335C89.6138 77.8196 89.8498 77.6526 90.0904 77.4324C90.3344 77.2142 90.5861 76.9533 90.8455 76.65C91.0394 76.4176 91.2106 76.2307 91.3591 76.0894C91.5058 75.9514 91.6406 75.8515 91.7635 75.7896C91.8882 75.7242 92.0047 75.6944 92.1129 75.7001C92.221 75.7059 92.33 75.7387 92.4396 75.7987C92.5459 75.8568 92.6346 75.9387 92.7059 76.0445C92.7772 76.1502 92.8224 76.2751 92.8416 76.4192C92.8627 76.5598 92.8542 76.7177 92.8163 76.8929C92.7765 77.0715 92.7014 77.2619 92.5908 77.4641C92.484 77.6594 92.361 77.8192 92.2218 77.9435C92.0807 78.0711 91.9357 78.1655 91.7866 78.2264C91.6375 78.2873 91.4878 78.3168 91.3376 78.3148C91.1907 78.3146 91.0574 78.2817 90.9374 78.2162L90.4173 79.1672C90.6607 79.3003 90.9159 79.3709 91.1831 79.3789C91.4518 79.3923 91.7175 79.3461 91.9801 79.2404C92.2427 79.1347 92.4935 78.9691 92.7325 78.7437C92.9716 78.5182 93.1848 78.2341 93.3722 77.8914C93.5465 77.5726 93.6639 77.2562 93.7244 76.942C93.783 76.6312 93.7911 76.3396 93.7487 76.0671C93.7063 75.7946 93.6147 75.5508 93.4741 75.3359C93.3368 75.1228 93.1551 74.9544 92.9289 74.8307C92.6992 74.7052 92.4689 74.646 92.2379 74.6533C92.0103 74.6624 91.7816 74.7265 91.5517 74.8457C91.3202 74.9595 91.087 75.1214 90.8521 75.3313C90.6152 75.5446 90.3771 75.7928 90.1377 76.0759C89.9438 76.3083 89.7666 76.494 89.6059 76.6332C89.4486 76.7743 89.3032 76.8773 89.1697 76.9423C89.0362 77.0073 88.911 77.0368 88.7941 77.0308C88.6806 77.0266 88.5673 76.9936 88.4542 76.9318Z" fill="#201E1E"></path> <path d="M90.3287 84.9582L91.0292 84.1234L89.8533 83.1365L90.9229 81.8618L90.2811 81.3232L89.2114 82.5979L86.5722 80.3833C86.273 80.1322 85.9845 79.9564 85.7067 79.8559C85.4295 79.761 85.1673 79.7271 84.9201 79.7542C84.67 79.7789 84.4356 79.8576 84.2171 79.9904C83.9991 80.1287 83.7997 80.3056 83.6189 80.521C83.5109 80.6497 83.4089 80.7834 83.3129 80.9221C83.2144 81.0638 83.1281 81.203 83.0542 81.3398C82.9772 81.4741 82.9122 81.6032 82.8593 81.727C82.8093 81.8534 82.7764 81.9686 82.7606 82.0725L83.4465 82.4492C83.4772 82.3883 83.5175 82.3099 83.5673 82.2141C83.6176 82.1237 83.673 82.0274 83.7334 81.9251C83.7962 81.8197 83.8619 81.7142 83.9302 81.6084C84.0016 81.5051 84.075 81.4086 84.1503 81.3188C84.2532 81.1961 84.3661 81.092 84.489 81.0064C84.6093 80.9237 84.742 80.8719 84.8871 80.8509C85.0292 80.8274 85.1817 80.8432 85.3446 80.8983C85.5074 80.9533 85.6831 81.06 85.8716 81.2181L88.5109 83.4328L86.9591 85.2821L87.6009 85.8206L89.1527 83.9714L90.3287 84.9582Z" fill="#201E1E"></path> <path d="M73.8988 90.5947C73.7918 90.3862 73.7441 90.1823 73.7559 89.983C73.7695 89.7872 73.8226 89.6041 73.915 89.4336C74.0058 89.2597 74.1307 89.1011 74.2899 88.9579C74.4473 88.8199 74.6199 88.7027 74.8075 88.6063C75.0438 88.4849 75.2788 88.4038 75.5124 88.3628C75.7444 88.3271 75.9698 88.3342 76.1888 88.3843C76.4059 88.4308 76.6095 88.5195 76.7996 88.6502C76.9915 88.7844 77.1638 88.9616 77.3164 89.1818L78.3015 88.6758C78.1233 88.3545 77.8994 88.094 77.63 87.8943C77.3588 87.6998 77.0577 87.5625 76.7267 87.4822C76.3517 87.385 75.9593 87.3648 75.5494 87.4216C75.136 87.4803 74.7486 87.6024 74.3872 87.788C74.0849 87.9433 73.804 88.1403 73.5446 88.379C73.2869 88.6211 73.0819 88.8889 72.9296 89.1823C72.7755 89.4722 72.6889 89.7824 72.6698 90.1128C72.6472 90.445 72.7234 90.7813 72.8983 91.1218C73.0714 91.4589 73.2952 91.7194 73.5698 91.9033C73.8408 92.089 74.1365 92.2116 74.4569 92.271C74.7879 92.3426 75.1253 92.3668 75.4692 92.3439C75.8149 92.3244 76.1508 92.2858 76.4769 92.2281C76.6739 92.1928 76.8876 92.1599 77.1178 92.1294C77.3446 92.1008 77.5665 92.0966 77.7833 92.1169C78.0036 92.1355 78.206 92.1918 78.3905 92.2859C78.5767 92.3835 78.7278 92.5408 78.8437 92.7579C78.9473 92.9595 78.9983 93.1572 78.9969 93.3511C78.9921 93.5469 78.9469 93.7325 78.8615 93.9082C78.7795 94.082 78.6651 94.2396 78.5181 94.381C78.3677 94.5241 78.2004 94.643 78.0162 94.7376C77.7869 94.8554 77.5631 94.9242 77.345 94.944C77.1251 94.9691 76.9162 94.9513 76.7181 94.8906C76.52 94.8298 76.3346 94.7297 76.1619 94.59C75.9909 94.4539 75.8353 94.2835 75.6951 94.0789L74.7048 94.5875C74.8903 94.9314 75.1265 95.2075 75.4135 95.4158C75.7005 95.624 76.0131 95.7665 76.3511 95.8432C76.6891 95.9199 77.0386 95.9336 77.3997 95.8842C77.7626 95.8383 78.1091 95.7306 78.4392 95.5611C78.738 95.4076 79.011 95.2081 79.2582 94.9626C79.5071 94.7205 79.7025 94.4511 79.8442 94.1543C79.986 93.8575 80.0638 93.5431 80.0777 93.211C80.0881 92.8807 80.0094 92.5522 79.8416 92.2256C79.6739 91.899 79.4563 91.6506 79.1889 91.4806C78.9198 91.3158 78.6251 91.2037 78.3047 91.1443C77.9896 91.0866 77.6627 91.0657 77.324 91.0816C76.9835 91.1028 76.6572 91.1386 76.345 91.1892C76.1305 91.2247 75.9055 91.2569 75.67 91.2856C75.431 91.3162 75.2004 91.3204 74.9783 91.2984C74.7544 91.2729 74.5493 91.207 74.3629 91.1007C74.1731 90.9962 74.0184 90.8275 73.8988 90.5947Z" fill="#201E1E"></path> <path d="M68.5417 90.1046C67.9472 90.2706 67.4818 90.5283 67.1454 90.8777C66.8063 91.2319 66.5782 91.5916 66.4611 91.9569L67.2375 92.2755C67.3601 91.9736 67.5452 91.707 67.7929 91.4756C68.0406 91.2442 68.3507 91.0766 68.7231 90.9726C69.0053 90.8938 69.2777 90.8745 69.5404 90.9148C69.8031 90.955 70.0429 91.0442 70.26 91.1823C70.47 91.3102 70.6536 91.4739 70.8107 91.6734C70.964 91.874 71.0953 92.1192 71.2046 92.4091L71.2157 92.4486L66.8532 93.6664L66.9839 94.1348C67.1026 94.5599 67.2674 94.9398 67.4784 95.2742C67.6857 95.6098 67.9362 95.8826 68.23 96.0925C68.5228 96.2987 68.8558 96.4309 69.2289 96.489C69.5993 96.5518 70.0045 96.5218 70.4448 96.399C70.7947 96.3013 71.1171 96.1342 71.412 95.8978C71.7032 95.6624 71.9413 95.3749 72.1263 95.0353C72.3141 94.6909 72.4324 94.301 72.4812 93.8656C72.531 93.4339 72.4871 92.9717 72.3495 92.4788L72.2834 92.2418C72.1647 91.8166 71.9835 91.4434 71.7397 91.1221C71.4959 90.8008 71.2093 90.5442 70.8799 90.3523C70.5505 90.1603 70.1867 90.0409 69.7883 89.9939C69.3861 89.948 68.9706 89.9849 68.5417 90.1046ZM70.2053 95.5411C69.9382 95.6157 69.695 95.6309 69.4758 95.5866C69.2529 95.5434 69.0554 95.4606 68.8833 95.3383C68.7113 95.216 68.5591 95.0557 68.4267 94.8575C68.2953 94.663 68.2034 94.4716 68.1509 94.2835L68.1367 94.2327L71.4213 93.3158C71.4587 93.6096 71.4565 93.8778 71.4148 94.1207C71.3703 94.3683 71.2939 94.5884 71.1854 94.7809C71.0759 94.9696 70.9375 95.1279 70.7704 95.2556C70.6044 95.3871 70.416 95.4823 70.2053 95.5411Z" fill="#201E1E"></path> <path d="M62.3796 91.1936C61.764 91.2388 61.2569 91.3994 60.858 91.6755C60.4556 91.9557 60.1609 92.2633 59.974 92.5982L60.6721 93.0639C60.8519 92.7922 61.0861 92.5674 61.3746 92.3896C61.6631 92.2117 62.0002 92.1086 62.3859 92.0803C62.6781 92.0589 62.949 92.0938 63.1985 92.1852C63.4481 92.2765 63.6655 92.4113 63.851 92.5896C64.0316 92.7565 64.1793 92.9533 64.2938 93.1799C64.4045 93.4068 64.4847 93.6731 64.5346 93.9788L64.5376 94.0198L60.0205 94.3514L60.0561 94.8364C60.0884 95.2767 60.1749 95.6816 60.3157 96.0512C60.4525 96.421 60.6442 96.7379 60.8907 97.0018C61.137 97.2619 61.4373 97.4572 61.7915 97.5878C62.1422 97.7227 62.5454 97.7734 63.0012 97.7399C63.3635 97.7133 63.7126 97.6133 64.0485 97.4398C64.3804 97.2665 64.6706 97.0318 64.9191 96.7354C65.1713 96.4349 65.3642 96.0761 65.4981 95.6589C65.6323 95.2456 65.6806 94.7838 65.6431 94.2735L65.6251 94.028C65.5928 93.5878 65.4889 93.1861 65.3134 92.823C65.1379 92.4599 64.9077 92.1517 64.6227 91.8984C64.3378 91.6452 64.0047 91.4562 63.6235 91.3314C63.2383 91.207 62.8237 91.161 62.3796 91.1936ZM62.936 96.8517C62.6594 96.872 62.418 96.8388 62.2119 96.7521C62.0019 96.6657 61.8247 96.5455 61.6802 96.3916C61.5357 96.2377 61.4182 96.0505 61.3276 95.83C61.2373 95.6134 61.1849 95.4077 61.1706 95.2129L61.1668 95.1603L64.5678 94.9106C64.5464 95.2059 64.4912 95.4684 64.4024 95.6982C64.3099 95.9322 64.1914 96.1328 64.047 96.3001C63.9024 96.4635 63.7355 96.5913 63.5464 96.6835C63.3576 96.7796 63.1542 96.8357 62.936 96.8517Z" fill="#201E1E"></path> <path d="M20.6561 58.4624L20.5269 59.798L29.0186 60.6191L29.1201 59.5693L25.7316 59.2416L22.2997 58.9981L26.8889 57.9878L26.9487 57.3696L22.528 55.3586L26.0655 55.789L29.454 56.1167L29.5555 55.0669L21.0638 54.2457L20.9341 55.5871L25.0356 57.4907L20.6561 58.4624Z" fill="#201E1E"></path> <path d="M30.9114 50.1686L31.2011 49.2278L25.142 47.362L24.8213 48.4036L29.1668 49.7417C29.2802 49.838 29.3797 49.9463 29.4653 50.0666C29.5483 50.1821 29.6117 50.3079 29.6556 50.444C29.7113 50.6083 29.739 50.7905 29.7386 50.9907C29.7346 51.1897 29.6969 51.405 29.6256 51.6364C29.5647 51.8343 29.4845 52.0017 29.3851 52.1387C29.2869 52.2719 29.1563 52.3707 28.9935 52.435C28.8344 52.5004 28.6385 52.526 28.4059 52.5115C28.1733 52.4971 27.8927 52.4394 27.5642 52.3382L23.9522 51.226L23.6332 52.262L27.2339 53.3707C27.6857 53.5098 28.0889 53.5808 28.4436 53.5838C28.7957 53.5819 29.1044 53.5216 29.3698 53.4031C29.6352 53.2845 29.8579 53.1119 30.0381 52.8854C30.2144 52.6577 30.3515 52.3852 30.4492 52.0678C30.5711 51.6721 30.5964 51.2978 30.5253 50.9448C30.4504 50.5907 30.2947 50.2668 30.0581 49.9733L30.9114 50.1686Z" fill="#201E1E"></path> <path d="M32.1174 43.6483C32.2065 43.697 32.2811 43.7601 32.3412 43.8375C32.4013 43.9149 32.4461 44.0039 32.4756 44.1046C32.5238 44.269 32.5271 44.4623 32.4857 44.6845C32.4409 44.9049 32.3492 45.1419 32.2105 45.3955C32.1224 45.5566 32.0163 45.71 31.892 45.8558C31.7678 46.0015 31.628 46.1188 31.4727 46.2074C31.3154 46.2996 31.1447 46.3553 30.9604 46.3748C30.778 46.3908 30.5854 46.3522 30.3826 46.2591L29.8625 47.2102C30.099 47.3395 30.3559 47.411 30.6334 47.4247C30.9127 47.435 31.1908 47.3823 31.4678 47.2666C31.7463 47.1562 32.0176 46.9818 32.2816 46.7433C32.5421 46.5029 32.7755 46.1942 32.9816 45.8172C33.1616 45.4881 33.288 45.1633 33.361 44.8426C33.434 44.5218 33.4528 44.2227 33.4176 43.9452C33.3823 43.6677 33.2936 43.4189 33.1514 43.1986C33.011 42.9749 32.8174 42.7956 32.5707 42.6607C32.341 42.5351 32.1116 42.4743 31.8825 42.4781C31.6552 42.4784 31.4242 42.5346 31.1893 42.6466C30.9579 42.7605 30.7218 42.9275 30.4812 43.1476C30.2372 43.3659 29.9855 43.6267 29.7261 43.9301C29.5323 44.1625 29.3611 44.3493 29.2125 44.4907C29.0659 44.6287 28.9311 44.7286 28.8082 44.7905C28.6834 44.8559 28.567 44.8857 28.4588 44.8799C28.3506 44.8742 28.2417 44.8414 28.132 44.7814C28.0258 44.7233 27.937 44.6414 27.8657 44.5356C27.7944 44.4298 27.7492 44.3049 27.73 44.1609C27.709 44.0203 27.7174 43.8624 27.7553 43.6872C27.7951 43.5086 27.8703 43.3182 27.9809 43.116C28.0877 42.9206 28.2107 42.7608 28.3499 42.6366C28.4909 42.5089 28.636 42.4146 28.7851 42.3537C28.9341 42.2927 29.0838 42.2633 29.2341 42.2653C29.3809 42.2655 29.5143 42.2983 29.6343 42.3639L30.1543 41.4128C29.911 41.2798 29.6557 41.2092 29.3886 41.2011C29.1199 41.1878 28.8542 41.2339 28.5916 41.3397C28.329 41.4454 28.0782 41.611 27.8391 41.8364C27.6001 42.0619 27.3868 42.346 27.1994 42.6887C27.0251 43.0074 26.9077 43.3239 26.8472 43.6381C26.7886 43.9488 26.7805 44.2405 26.8229 44.513C26.8654 44.7855 26.9569 45.0292 27.0976 45.2442C27.2349 45.4573 27.4166 45.6256 27.6428 45.7493C27.8724 45.8749 28.1027 45.9341 28.3338 45.9268C28.5613 45.9177 28.7901 45.8536 29.02 45.7344C29.2514 45.6206 29.4846 45.4587 29.7196 45.2488C29.9564 45.0355 30.1946 44.7873 30.434 44.5042C30.6278 44.2718 30.8051 44.086 30.9658 43.9469C31.1231 43.8058 31.2685 43.7028 31.402 43.6377C31.5355 43.5727 31.6607 43.5432 31.7776 43.5493C31.891 43.5535 32.0043 43.5865 32.1174 43.6483Z" fill="#201E1E"></path> <path d="M30.243 35.6219L29.5424 36.4567L30.7184 37.4435L29.6487 38.7183L30.2906 39.2569L31.3602 37.9821L33.9995 40.1968C34.2987 40.4479 34.5872 40.6237 34.8649 40.7241C35.1422 40.8191 35.4044 40.853 35.6515 40.8259C35.9017 40.8012 36.136 40.7225 36.3546 40.5897C36.5726 40.4514 36.772 40.2745 36.9528 40.0591C37.0608 39.9304 37.1627 39.7967 37.2588 39.658C37.3573 39.5163 37.4435 39.3771 37.5175 39.2403C37.5945 39.106 37.6594 38.9769 37.7124 38.8531C37.7623 38.7267 37.7952 38.6115 37.8111 38.5076L37.1252 38.1308C37.0945 38.1918 37.0542 38.2701 37.0043 38.366C36.954 38.4564 36.8987 38.5527 36.8383 38.655C36.7754 38.7603 36.7098 38.8659 36.6414 38.9717C36.57 39.075 36.4967 39.1715 36.4214 39.2613C36.3184 39.384 36.2055 39.4881 36.0827 39.5737C35.9624 39.6563 35.8297 39.7081 35.6845 39.7292C35.5424 39.7527 35.3899 39.7369 35.2271 39.6818C35.0642 39.6268 34.8885 39.5201 34.7 39.3619L32.0608 37.1473L33.6126 35.298L32.9707 34.7594L31.4189 36.6087L30.243 35.6219Z" fill="#201E1E"></path> <path d="M46.6728 29.9854C46.7799 30.1939 46.8275 30.3977 46.8157 30.597C46.8021 30.7928 46.7491 30.976 46.6566 31.1465C46.5659 31.3204 46.441 31.479 46.2818 31.6222C46.1243 31.7602 45.9518 31.8774 45.7641 31.9738C45.5279 32.0951 45.2929 32.1763 45.0592 32.2173C44.8273 32.253 44.6018 32.2458 44.3829 32.1958C44.1658 32.1492 43.9621 32.0606 43.772 31.9299C43.5802 31.7957 43.4079 31.6185 43.2553 31.3983L42.2702 31.9043C42.4484 32.2256 42.6722 32.4861 42.9417 32.6858C43.2128 32.8803 43.5139 33.0176 43.845 33.0979C44.2199 33.1951 44.6124 33.2153 45.0223 33.1585C45.4357 33.0998 45.8231 32.9777 46.1844 32.792C46.4867 32.6368 46.7676 32.4398 47.0271 32.2011C47.2848 31.959 47.4897 31.6912 47.642 31.3978C47.7961 31.1079 47.8827 30.7977 47.9018 30.4673C47.9244 30.1351 47.8483 29.7988 47.6734 29.4583C47.5002 29.1212 47.2764 28.8607 47.0019 28.6768C46.7308 28.491 46.4351 28.3685 46.1148 28.309C45.7838 28.2375 45.4464 28.2132 45.1024 28.2362C44.7567 28.2557 44.4209 28.2943 44.0948 28.352C43.8978 28.3873 43.6841 28.4202 43.4538 28.4507C43.227 28.4793 43.0052 28.4835 42.7883 28.4631C42.568 28.4446 42.3656 28.3882 42.1812 28.2942C41.9949 28.1966 41.8438 28.0393 41.7279 27.8221C41.6244 27.6206 41.5733 27.4229 41.5747 27.2289C41.5796 27.0332 41.6247 26.8475 41.7102 26.6719C41.7921 26.4981 41.9066 26.3405 42.0536 26.1991C42.204 26.056 42.3713 25.9371 42.5555 25.8425C42.7848 25.7247 43.0085 25.6559 43.2267 25.636C43.4465 25.6109 43.6555 25.6288 43.8536 25.6895C44.0517 25.7502 44.2371 25.8504 44.4098 25.9901C44.5807 26.1262 44.7363 26.2966 44.8766 26.5012L45.8668 25.9926C45.6814 25.6487 45.4452 25.3726 45.1581 25.1643C44.8711 24.956 44.5586 24.8136 44.2206 24.7369C43.8826 24.6602 43.533 24.6465 43.1719 24.6959C42.809 24.7417 42.4625 24.8494 42.1325 25.019C41.8336 25.1725 41.5606 25.372 41.3135 25.6175C41.0645 25.8596 40.8692 26.129 40.7274 26.4258C40.5856 26.7226 40.5078 27.037 40.4939 27.3691C40.4836 27.6994 40.5623 28.0279 40.73 28.3545C40.8978 28.6811 41.1154 28.9294 41.3828 29.0995C41.6519 29.2643 41.9466 29.3764 42.2669 29.4358C42.582 29.4935 42.909 29.5144 43.2477 29.4985C43.5881 29.4773 43.9145 29.4415 44.2266 29.3909C44.4411 29.3554 44.6661 29.3232 44.9017 29.2945C45.1407 29.2639 45.3712 29.2597 45.5934 29.2817C45.8173 29.3072 46.0224 29.3731 46.2087 29.4794C46.3985 29.5839 46.5532 29.7526 46.6728 29.9854Z" fill="#201E1E"></path> <path d="M52.03 30.4754C52.6244 30.3095 53.0899 30.0518 53.4263 29.7024C53.7654 29.3482 53.9935 28.9884 54.1105 28.6232L53.3342 28.3046C53.2116 28.6065 53.0265 28.8731 52.7788 29.1045C52.5311 29.3358 52.221 29.5035 51.8485 29.6075C51.5663 29.6863 51.2939 29.7055 51.0312 29.6653C50.7686 29.6251 50.5287 29.5359 50.3117 29.3977C50.1016 29.2698 49.918 29.1061 49.7609 28.9067C49.6076 28.7061 49.4763 28.4609 49.367 28.171L49.356 28.1315L53.7185 26.9137L53.5877 26.4453C53.469 26.0202 53.3042 25.6403 53.0932 25.3058C52.886 24.9703 52.6355 24.6975 52.3416 24.4875C52.0488 24.2813 51.7159 24.1492 51.3428 24.0911C50.9724 24.0282 50.5671 24.0582 50.1269 24.1811C49.777 24.2788 49.4546 24.4459 49.1596 24.6823C48.8685 24.9177 48.6303 25.2052 48.4453 25.5448C48.2576 25.8892 48.1393 26.2791 48.0905 26.7145C48.0407 27.1462 48.0845 27.6084 48.2221 28.1013L48.2883 28.3383C48.407 28.7635 48.5882 29.1367 48.832 29.458C49.0758 29.7792 49.3624 30.0359 49.6917 30.2278C50.0211 30.4198 50.385 30.5392 50.7834 30.5862C51.1855 30.6321 51.6011 30.5952 52.03 30.4754ZM50.3664 25.0389C50.6335 24.9644 50.8767 24.9492 51.0958 24.9935C51.3188 25.0367 51.5163 25.1194 51.6883 25.2418C51.8604 25.3641 52.0126 25.5244 52.145 25.7226C52.2763 25.9171 52.3683 26.1084 52.4208 26.2966L52.435 26.3473L49.1504 27.2642C49.113 26.9705 49.1152 26.7022 49.1569 26.4594C49.2013 26.2118 49.2778 25.9917 49.3863 25.7992C49.4958 25.6105 49.6341 25.4522 49.8012 25.3245C49.9673 25.1929 50.1557 25.0978 50.3664 25.0389Z" fill="#201E1E"></path> <path d="M58.1921 29.3864C58.8076 29.3413 59.3148 29.1806 59.7136 28.9046C60.1161 28.6244 60.4107 28.3168 60.5977 27.9819L59.8996 27.5162C59.7198 27.7879 59.4856 28.0126 59.1971 28.1905C58.9085 28.3684 58.5714 28.4714 58.1857 28.4998C57.8936 28.5212 57.6227 28.4863 57.3731 28.3949C57.1236 28.3036 56.9061 28.1688 56.7207 27.9904C56.54 27.8235 56.3924 27.6268 56.2778 27.4002C56.1672 27.1733 56.0869 26.907 56.037 26.6012L56.034 26.5603L60.5512 26.2287L60.5156 25.7436C60.4832 25.3034 60.3967 24.8985 60.256 24.5289C60.1192 24.159 59.9275 23.8421 59.6809 23.5782C59.4347 23.3182 59.1344 23.1229 58.7801 22.9922C58.4295 22.8574 58.0262 22.8067 57.5704 22.8402C57.2081 22.8668 56.859 22.9668 56.5232 23.1403C56.1912 23.3135 55.901 23.5483 55.6525 23.8446C55.4004 24.1452 55.2074 24.504 55.0735 24.9212C54.9394 25.3345 54.891 25.7963 54.9285 26.3066L54.9465 26.552C54.9789 26.9923 55.0828 27.3939 55.2583 27.7571C55.4338 28.1202 55.664 28.4284 55.9489 28.6816C56.2338 28.9349 56.5669 29.1239 56.9482 29.2486C57.3333 29.3731 57.748 29.4191 58.1921 29.3864ZM57.6357 23.7284C57.9122 23.7081 58.1536 23.7413 58.3597 23.828C58.5697 23.9144 58.747 24.0346 58.8915 24.1885C59.0359 24.3424 59.1535 24.5296 59.2441 24.7501C59.3344 24.9667 59.3867 25.1724 59.401 25.3672L59.4049 25.4198L56.0039 25.6695C56.0253 25.3742 56.0804 25.1116 56.1693 24.8819C56.2618 24.6479 56.3802 24.4473 56.5246 24.28C56.6693 24.1166 56.8362 23.9888 57.0252 23.8966C57.214 23.8005 57.4175 23.7444 57.6357 23.7284Z" fill="#201E1E"></path> </svg> 